<svg id="Layer_1" data-name="Layer 1" xmlns="http://www.w3.org/2000/svg" viewBox="0 0 530 525.34"><defs><style>.cls-1{fill:none;stroke:#fff;stroke-miterlimit:10;stroke-width:10px;}.cls-2{fill:#fff;}</style></defs><title>calculator</title><polyline class="cls-1" points="280 505 5 505 5 5 505 5 505 280"/><path class="cls-2" d="M905,547V777H675V547H905m10-10H665V787H915V537Z" transform="translate(-385 -261.66)"/><path class="cls-2" d="M545.67,387H606v20.21H545.67v62.41H525.3V407.24h-60V387h60v-62.7h20.37Z" transform="translate(-385 -261.66)"/><path class="cls-2" d="M826.71,329.63l14.06,14.51L789.21,396l51.27,51.56-14.07,14.51-51.85-51.42-51,51.42-14.79-14.51L760.06,396l-51.57-51.56,14.65-14.8,51.71,52Z" transform="translate(-385 -261.66)"/><path class="cls-2" d="M582.24,561.43,515.72,739.9H495.45L562,561.43Z" transform="translate(-385 -261.66)"/><path class="cls-2" d="M709.35,640.27V616.86H868.28v23.41Zm0,69.9V686.75H868.28v23.42Z" transform="translate(-385 -261.66)"/></svg>