<?xml version="1.0" standalone="no"?>
<!DOCTYPE svg PUBLIC "-//W3C//DTD SVG 20010904//EN"
 "http://www.w3.org/TR/2001/REC-SVG-20010904/DTD/svg10.dtd">
<svg version="1.0" xmlns="http://www.w3.org/2000/svg"
 width="700.000000pt" height="700.000000pt" viewBox="0 0 700.000000 700.000000"
 preserveAspectRatio="xMidYMid meet">
<metadata>
Created by potrace 1.11, written by Peter Selinger 2001-2013
</metadata>
<g transform="translate(0.000000,700.000000) scale(0.100000,-0.100000)"
fill="#000000" stroke="none">
<path d="M884 6966 c-50 -50 -43 -119 16 -154 28 -18 59 -19 418 -20 213 0
394 -1 402 -1 13 -1 15 -20 14 -110 -1 -126 10 -162 56 -186 44 -23 92 -13
124 26 25 29 26 36 26 150 0 106 2 119 18 120 23 1 3041 1 3068 0 l21 -1 0
-605 0 -605 -171 0 c-219 -1 -2895 -1 -2918 0 -17 0 -18 20 -18 269 0 148 -4
281 -10 295 -11 29 -43 53 -81 59 -32 6 -86 -19 -102 -47 -8 -15 -12 -170 -13
-577 l-1 -557 -40 -48 c-69 -84 -78 -122 -78 -334 0 -179 1 -187 27 -242 14
-31 45 -77 69 -103 83 -89 174 -125 325 -125 l91 0 17 -62 c99 -358 360 -687
681 -857 33 -18 62 -38 65 -46 3 -8 5 -109 4 -226 l-1 -211 -149 -149 -150
-149 -199 -56 c-110 -30 -281 -78 -380 -105 -99 -28 -218 -61 -265 -74 -187
-50 -376 -107 -433 -130 -296 -121 -545 -379 -665 -691 -65 -169 -100 -462
-64 -535 23 -46 84 -69 127 -48 53 26 63 53 69 179 3 63 10 140 15 170 70 354
340 657 682 763 135 41 628 179 695 194 19 4 25 -6 59 -114 20 -65 45 -143 55
-173 10 -30 41 -129 70 -220 28 -91 59 -190 69 -220 10 -30 23 -71 29 -90 5
-19 38 -120 71 -225 l61 -190 62 -66 c144 -153 341 -360 465 -488 72 -75 130
-138 128 -139 -3 -3 -1152 -5 -1362 -3 l-53 1 0 179 0 179 -29 31 c-29 31 -42
35 -90 31 -30 -2 -67 -25 -77 -48 -4 -9 -8 -95 -9 -189 -1 -95 -4 -175 -7
-178 -4 -5 -437 -8 -760 -6 l-78 1 0 133 c0 148 -7 168 -65 193 -35 14 -62 13
-93 -7 -44 -28 -49 -53 -48 -259 1 -214 7 -240 62 -260 16 -6 1083 -10 2860
-10 3083 0 2875 -4 2906 53 18 33 18 400 0 437 -31 63 -121 73 -167 18 -27
-32 -28 -43 -26 -205 l2 -93 -48 0 c-297 -3 -786 0 -791 5 -3 3 -6 83 -7 178
-1 181 -6 204 -50 227 -33 17 -59 19 -92 5 -60 -25 -66 -46 -66 -240 l1 -175
-42 0 c-180 -3 -1369 0 -1371 2 -2 2 42 51 98 109 56 58 174 181 262 274 88
93 190 200 228 239 l67 71 49 155 c28 85 80 250 116 365 220 697 225 715 232
715 15 0 705 -193 753 -211 188 -69 355 -198 472 -364 119 -167 174 -336 184
-555 5 -125 15 -153 59 -174 39 -19 59 -20 88 -4 53 28 65 62 61 173 -14 487
-291 902 -731 1094 -40 17 -153 54 -250 82 -98 27 -200 56 -228 64 -27 8 -158
44 -290 80 -132 37 -269 75 -305 85 -36 11 -99 28 -140 40 l-75 20 -150 150
-150 150 0 223 0 222 45 24 c254 133 479 360 604 610 37 72 90 212 106 277
l10 42 113 4 c149 6 207 28 292 112 98 96 110 136 110 366 0 178 -1 187 -26
241 -15 30 -41 72 -60 94 l-34 38 0 884 0 883 25 1 c166 6 433 2 438 -6 4 -5
7 -233 7 -505 l0 -494 -57 -29 c-189 -94 -248 -337 -126 -514 31 -46 68 -77
138 -116 l45 -25 0 -138 c0 -91 5 -147 13 -161 27 -49 83 -66 137 -41 46 21
55 54 55 205 l0 138 55 29 c216 112 259 395 86 564 -29 28 -72 58 -96 68 l-45
17 0 503 c0 564 -8 507 74 505 21 0 53 6 71 14 65 26 81 114 31 164 l-26 26
-2581 3 -2581 2 -34 -34z m5006 -1391 c134 -69 89 -271 -60 -269 -57 1 -102
26 -128 73 -65 119 68 258 188 196z m-3799 -245 c0 -22 0 -69 0 -105 0 -36 0
-73 0 -83 -1 -17 -10 -19 -76 -19 l-75 -1 0 124 0 124 75 0 75 0 1 -40z m2596
-477 c-2 -285 -7 -531 -11 -548 -3 -16 -11 -54 -17 -83 -86 -431 -459 -805
-901 -906 -116 -26 -327 -37 -413 -21 -16 3 -57 10 -90 16 -79 14 -205 58
-296 104 -224 112 -423 312 -536 540 -28 56 -79 195 -89 240 -9 44 -15 71 -21
95 -4 14 -8 262 -10 553 l-4 527 1196 0 1196 0 -4 -517z m359 395 l-1 -123
-70 -2 c-38 0 -72 3 -75 7 -4 7 -5 185 -1 228 1 8 23 12 75 12 l73 0 -1 -122z
m-2955 -407 c0 -65 0 -178 -1 -416 l0 -50 -63 1 c-75 1 -102 9 -143 40 -54 40
-66 81 -67 224 0 139 10 184 51 223 40 38 81 52 156 53 l66 0 1 -75z m2987 55
c17 -9 44 -32 59 -53 27 -35 28 -40 31 -184 3 -132 1 -151 -17 -187 -21 -41
-58 -74 -97 -86 -31 -9 -142 -11 -151 -2 -10 10 -11 508 -1 522 12 16 140 9
176 -10z m-1888 -1783 c123 -25 199 -32 340 -28 85 2 169 6 185 10 17 3 58 13
93 21 35 7 67 14 72 14 5 0 9 -79 9 -178 l0 -178 -192 -192 c-106 -105 -195
-194 -198 -197 -3 -3 -94 83 -203 191 l-196 197 0 180 0 180 33 -7 c17 -4 43
-10 57 -13z m-24 -703 c93 -93 169 -174 169 -180 0 -10 -336 -353 -341 -347
-8 10 -204 470 -204 479 0 9 197 218 205 218 1 0 77 -76 171 -170z m1028 -63
c-3 -15 -12 -40 -19 -55 -7 -15 -48 -106 -90 -202 -42 -96 -81 -183 -86 -192
-7 -14 -38 13 -179 154 -93 94 -170 174 -170 179 0 4 77 84 171 178 l171 171
104 -102 c94 -92 104 -106 98 -131z m-1452 -404 c132 -299 134 -303 213 -395
44 -51 87 -99 95 -108 9 -9 28 -32 43 -51 l27 -35 -15 -70 c-8 -38 -16 -80
-18 -94 -3 -14 -12 -59 -20 -100 -9 -41 -18 -88 -21 -104 -3 -16 -10 -52 -16
-80 -6 -28 -12 -61 -15 -74 -12 -63 -13 -63 -58 -14 -23 25 -60 65 -82 88
-106 110 -105 107 -141 225 -20 63 -51 164 -70 224 -41 130 -75 236 -108 343
-14 42 -54 171 -90 286 -37 115 -64 211 -62 214 10 10 192 59 198 53 4 -3 67
-142 140 -308z m1771 279 c37 -11 70 -22 72 -24 3 -3 -4 -31 -14 -64 -18 -56
-60 -189 -193 -609 -33 -104 -83 -263 -111 -351 l-52 -161 -110 -117 c-60 -64
-113 -116 -116 -116 -3 0 -12 33 -19 73 -8 39 -15 77 -16 82 -1 6 -21 103 -44
218 l-41 207 123 143 124 142 118 270 c65 149 125 285 134 303 17 38 26 38
145 4z m-827 -332 c104 -105 191 -193 193 -195 2 -2 -36 -49 -84 -105 l-87
-100 -213 0 -212 0 -60 68 c-89 99 -116 132 -112 138 17 21 375 382 380 383 4
1 91 -85 195 -189z m-1 -675 c18 -86 84 -409 91 -450 3 -16 12 -63 20 -104
l15 -74 -34 -36 c-19 -20 -56 -58 -82 -86 -107 -112 -198 -205 -202 -205 -2 0
-37 35 -78 77 -40 43 -109 116 -154 163 -44 47 -81 92 -81 100 0 8 4 31 10 50
5 19 12 51 15 70 4 29 10 56 20 100 1 3 5 25 9 50 5 25 10 52 11 60 7 32 65
316 70 335 4 19 12 20 179 20 l176 0 15 -70z"/>
</g>
</svg>
